<svg xmlns="http://www.w3.org/2000/svg" xmlns:xlink="http://www.w3.org/1999/xlink" width="394" height="524" viewBox="0 0 394 524">
  <defs>
    <clipPath id="clip-path">
      <rect id="Rectangle_74" data-name="Rectangle 74" width="394" height="524" transform="translate(1046 1348)" fill="#fff" stroke="#707070" stroke-width="1"/>
    </clipPath>
  </defs>
  <g id="Mask_Group_2" data-name="Mask Group 2" transform="translate(-1046 -1348)" clip-path="url(#clip-path)">
    <path id="Path_324" data-name="Path 324" d="M973.435,673.348c106.033-15.828,110.486-100.339,76.818-147.341-47.709-66.577-91.258-55.736-24.721-165.342,22.588-37.229,31.282-84.778,14.161-125.887-12.307-29.575-37.749-53.883-68.5-62.91-17.094-5-35.189-5.334-52.7-8.667s-35.508-10.4-45.709-25.015c-9.827-14.067-10.667-32.575-8.294-49.576,5.667-40.882,28-78.311,30.015-119.833,1.68-34.989-9.894-75.164-34.6-100.619-32.348-33.335-82.671-40.5-126.807-43.069-51.843-3-104.1,4.76-153.342,20.854-63.15,20.6-121.473,54.6-173.343,96.005-46.2,36.9-88,80.284-117.513,131.5C242.089,154.533,215.021,286.54,310.279,344.5c114.673,69.777,188.677-51.189,194.9,67.83,3.72,71.23,54.736,182.677,193.877,127.127S820.734,696.149,973.435,673.348Z" transform="translate(849.782 1305.472)" fill="#2753e2"/>
  </g>
</svg>
